FFmpeg version SVN-r25716, Copyright (c) 2000-2010 the FFmpeg developers  built on Nov 10 2010 12:23:18 with gcc 4.1.2 20080704 (Red Hat 4.1.2-48)  configuration: --enable-libmp3lame --enable-shared --disable-mmx --arch=x86_64  libavutil     50.33. 0 / 50.33. 0  libavcore      0.12. 1 /  0.12. 1  libavcodec    52.94. 4 / 52.94. 4  libavformat   52.84. 0 / 52.84. 0  libavdevice   52. 2. 2 / 52. 2. 2  libavfilter    1.59. 0 /  1.59. 0  libswscale     0.12. 0 /  0.12. 0Input #0, avi, from '/RAID10/data/converted_video_files/24560.avi':  Duration: 00:00:05.00, start: 0.000000, bitrate: 3222 kb/s    Stream #0.0: Video: cinepak, yuv420p, 800x800, 3 fps, 3 tbr, 3 tbn, 3 tbc[buffer @ 0x9894ae0] w:800 h:800 pixfmt:yuv420pOutput #0, flv, to '/RAID10/data/converted_video_files/24560.flv':  Metadata:    encoder         : Lavf52.84.0    Stream #0.0: Video: flv, yuv420p, 800x800, q=2-31, 600 kb/s, 1k tbn, 24 tbcStream mapping:  Stream #0.0 -> #0.0Press [q] to stop encodingframe=   15 fps=  0 q=30.3 size=     701kB time=4.71 bitrate=1218.8kbits/s    frame=   15 fps=  0 q=30.3 Lsize=     701kB time=4.71 bitrate=1218.8kbits/s    video:700kB audio:0kB global headers:0kB muxing overhead 0.062764%